<?xml version="1.0" encoding="UTF-8"?>
<svg version="1.1" xmlns="http://www.w3.org/2000/svg" width="512" height="512">
<path d="M0 0 C168.96 0 337.92 0 512 0 C512 168.96 512 337.92 512 512 C343.04 512 174.08 512 0 512 C0 343.04 0 174.08 0 0 Z " fill="#FFFEFE" transform="translate(0,0)"/>
<path d="M0 0 C1.13598633 0.39485596 2.27197266 0.78971191 3.44238281 1.1965332 C6.79177723 2.36235139 10.13167534 3.55364435 13.47070312 4.7487793 C17.63265574 6.23461778 21.80135937 7.70137443 25.96875 9.171875 C31.85453646 11.25082899 37.73885793 13.3338071 43.62011719 15.42553711 C60.1328649 21.29732589 76.67288715 27.08859922 93.22232819 32.85587311 C112.70755067 39.64631232 132.18143047 46.46591947 151.625 53.375 C167.47616028 59.00748634 183.35186374 64.56401815 199.25 70.0625 C217.29421384 76.30370121 235.30982348 82.62062891 253.29760742 89.02270508 C263.06768377 92.49810781 272.84453762 95.95111861 282.64231873 99.34777832 C287.58187279 101.060221 292.51912672 102.77924994 297.45645142 104.49810791 C299.83299367 105.32315904 302.21071734 106.14481613 304.58969116 106.96282959 C307.91313844 108.10585613 311.23224807 109.26076607 314.55078125 110.41796875 C315.52270416 110.74859818 316.49462708 111.0792276 317.4960022 111.4198761 C336.80060117 118.20148789 350.68459581 129.68541636 359.625 148.125 C364.03238125 158.89024011 365.21684664 169.03057536 365.18359375 180.6015625 C365.18817007 182.01777391 365.19347987 183.43398311 365.19947815 184.85018921 C365.20834072 187.7967032 365.20606317 190.74294512 365.19604492 193.68945312 C365.1845281 197.4393522 365.20484213 201.18831328 365.23396206 204.93808937 C365.25241986 207.85517187 365.25201334 210.77203308 365.24632454 213.68915939 C365.24617268 215.0708689 365.25210304 216.45259473 365.26461601 217.83424759 C365.34049604 227.57738535 364.17890344 235.05176232 359 243.375 C351.86296401 250.31378499 344.10190975 252.9883352 334.25292969 252.90063477 C328.34599488 252.33044347 322.98279319 250.28445219 317.46765137 248.20910645 C315.15412947 247.33894103 312.83296093 246.49265342 310.50878906 245.65136719 C307.88601057 244.70161585 305.26391104 243.75025022 302.644104 242.79232788 C291.26059207 238.63250028 279.81279966 234.65560864 268.36975098 230.66329956 C264.47313112 229.30359758 260.57777602 227.94029678 256.68261719 226.57641602 C239.63198989 220.60729315 222.56691699 214.68052071 205.49499512 208.77258301 C189.55610131 203.25439939 173.65032856 197.64672296 157.75695801 191.99890137 C142.61137736 186.61816134 127.44047937 181.31507955 112.25 176.0625 C95.07083636 170.12227116 77.92242846 164.10123434 60.79550171 158.01208496 C42.85564447 151.63553178 24.87574674 145.37848833 6.87304688 139.18164062 C-23.32092478 128.77266455 -23.32092478 128.77266455 -30.25 122.5625 C-31.17232422 121.77746094 -31.17232422 121.77746094 -32.11328125 120.9765625 C-38.12978002 115.48827883 -41.9707641 108.62708131 -43.25 100.5625 C-43.36221659 97.84790659 -43.42748672 95.15758779 -43.44287109 92.44262695 C-43.45104858 91.63865982 -43.45922607 90.83469269 -43.46765137 90.00636292 C-43.49239458 87.35450973 -43.50899391 84.70270971 -43.5234375 82.05078125 C-43.52876118 81.14111288 -43.53408485 80.23144451 -43.53956985 79.29421043 C-43.56625479 74.4781313 -43.58564355 69.66207766 -43.60009766 64.84594727 C-43.61342541 60.87403273 -43.64126333 56.90263333 -43.68212891 52.9309082 C-43.73161265 48.12048736 -43.75623769 43.31053285 -43.76332474 38.49986839 C-43.77000972 36.67433767 -43.78515945 34.84881623 -43.80921555 33.02343178 C-44.06059635 12.79287071 -44.06059635 12.79287071 -36.27450562 4.44429016 C-25.44408352 -5.92876702 -13.25130513 -4.80928422 0 0 Z " fill="#FF3131" transform="translate(95.25,56.4375)"/>
<path d="M0 0 C0.66966797 -0.00773437 1.33933594 -0.01546875 2.02929688 -0.0234375 C15.36516894 0.0265564 27.18023866 4.24134407 39.5625 8.6875 C41.44211695 9.35400741 43.32209146 10.01950719 45.20239258 10.68408203 C49.24127598 12.11295875 53.2782281 13.54712404 57.31396484 14.98486328 C63.81373577 17.29814568 70.32194289 19.58703322 76.83203125 21.87109375 C87.03563618 25.45163612 97.23627727 29.04046146 107.43449402 32.63632202 C114.31095143 35.06075289 121.18874358 37.48134363 128.06761169 39.89892578 C132.49412956 41.45547562 136.91952674 43.01519253 141.34463501 44.57574463 C143.42408482 45.30841407 145.50397018 46.03984866 147.58432007 46.7699585 C150.45978359 47.77939446 153.33358057 48.79344466 156.20703125 49.80859375 C157.03897003 50.09944351 157.87090881 50.39029327 158.72805786 50.68995667 C172.87964944 55.70800981 172.87964944 55.70800981 176.8125 59.0625 C178.18461419 62.49278547 177.6899942 64.74127029 176.6875 68.25 C173.46020875 71.27407922 170.44785584 72.96111621 166.28881836 74.39038086 C165.21914825 74.76359467 164.14947815 75.13680847 163.0473938 75.52133179 C161.88577728 75.91519073 160.72416077 76.30904968 159.52734375 76.71484375 C157.64367587 77.36753476 155.76000815 78.02022623 153.87634659 78.67293549 C151.85910138 79.36972182 149.8401932 80.06147029 147.82070923 80.7517395 C143.56473585 82.20655195 139.31363481 83.67524381 135.06323242 85.14624023 C129.90716953 86.92979676 124.75010058 88.71037897 119.59164524 90.48700428 C107.1056297 94.78807804 94.64161032 99.15085094 82.17996216 103.52200317 C75.98156745 105.69566919 69.78169104 107.86510172 63.58203125 110.03515625 C61.10106674 110.90378723 58.6201097 111.77243957 56.13916016 112.64111328 C46.15515156 116.1367193 36.17072058 119.63111837 26.1862793 123.12548828 C21.20981435 124.86716404 16.23341775 126.60903486 11.25708008 128.35107422 C-0.28796728 132.39245423 -11.8334068 136.43269805 -23.38037109 140.46859741 C-28.08089757 142.11153874 -32.78120863 143.75509598 -37.48147583 145.39877892 C-40.65186102 146.50741033 -43.82239701 147.61560544 -46.99316406 148.72314453 C-59.68995559 153.15818269 -72.37954107 157.61277348 -85.04821777 162.12752724 C-86.90072608 162.7876767 -88.75358226 163.44684968 -90.60644531 164.10600281 C-91.71858398 164.50326065 -92.83072266 164.90051849 -93.9765625 165.30981445 C-94.96092285 165.66106888 -95.9452832 166.0123233 -96.95947266 166.3742218 C-99.28749431 167.19285761 -99.28749431 167.19285761 -101.3125 168.25 C-110.34099919 169.09945557 -117.86857005 168.75319107 -125.3125 163.25 C-130.9753263 158.12342619 -135.28590689 152.08110178 -135.70690918 144.26203918 C-135.73053722 142.78919695 -135.73817158 141.31603811 -135.73242188 139.84301758 C-135.74089142 139.03221741 -135.74936096 138.22141724 -135.75808716 137.38604736 C-135.78136565 134.72204623 -135.78248118 132.05862616 -135.78125 129.39453125 C-135.78835941 127.52756016 -135.79605954 125.66059123 -135.80432129 123.79362488 C-135.81774684 119.88408334 -135.81934457 115.97474364 -135.81347656 112.06518555 C-135.80759622 107.08332166 -135.83811186 102.10243761 -135.87859344 97.12076283 C-135.90459677 93.26426583 -135.90733621 89.4080004 -135.90370178 85.55142784 C-135.90538266 83.71641271 -135.91492445 81.88138567 -135.93284607 80.04645729 C-136.04343227 67.31993548 -135.3326238 55.72180218 -126.125 45.875 C-125.45082031 45.12476563 -124.77664062 44.37453125 -124.08203125 43.6015625 C-114.05052926 35.08398253 -101.80850249 31.59156303 -89.5625 27.375 C-87.44360699 26.63691022 -85.3250408 25.89788157 -83.20678711 25.15795898 C-78.80703914 23.62300177 -74.40508927 22.09459961 -70.00146484 20.57080078 C-63.40602582 18.2864095 -56.82161948 15.97132884 -50.23828125 13.65234375 C-47.12012081 12.55685415 -44.00163933 11.46228615 -40.88293457 10.36834717 C-38.89234146 9.66960787 -36.90218111 8.96963435 -34.91247559 8.26837158 C-32.13220765 7.28969798 -29.34965609 6.31781179 -26.56640625 5.34765625 C-25.7589949 5.06196274 -24.95158356 4.77626923 -24.1197052 4.48191833 C-16.11700826 1.70746866 -8.49167564 -0.09640502 0 0 Z " fill="#FF3131" transform="translate(187.3125,283.75)"/>
</svg>
