<svg id="svg" version="1.1" xmlns="http://www.w3.org/2000/svg" xmlns:xlink="http://www.w3.org/1999/xlink" width="400" height="400" viewBox="0, 0, 400,400"><g id="svgg"><path id="path0" d="M0.000 0.649 C 0.000 1.204,0.101 1.221,0.700 0.762 C 1.085 0.467,1.475 0.175,1.567 0.113 C 1.658 0.051,1.343 0.000,0.867 0.000 C 0.334 0.000,0.000 0.250,0.000 0.649 M5.800 0.285 C 6.240 0.391,6.771 0.640,6.980 0.839 C 7.189 1.037,7.763 1.200,8.256 1.200 C 8.749 1.200,9.242 1.344,9.351 1.521 C 9.460 1.697,10.472 2.093,11.600 2.400 C 12.728 2.707,13.740 3.103,13.849 3.279 C 13.958 3.456,14.476 3.600,15.000 3.600 C 15.524 3.600,16.064 3.780,16.200 4.000 C 16.336 4.220,16.799 4.400,17.229 4.400 C 17.659 4.400,18.368 4.580,18.805 4.800 C 19.242 5.020,19.958 5.380,20.395 5.600 C 20.832 5.820,21.541 6.000,21.971 6.000 C 22.401 6.000,22.864 6.180,23.000 6.400 C 23.136 6.620,23.687 6.800,24.224 6.800 C 24.761 6.800,25.200 6.980,25.200 7.200 C 25.200 7.420,25.639 7.600,26.176 7.600 C 26.713 7.600,27.264 7.780,27.400 8.000 C 27.536 8.220,28.076 8.400,28.600 8.400 C 29.124 8.400,29.664 8.580,29.800 8.800 C 29.936 9.020,30.399 9.200,30.829 9.200 C 31.259 9.200,31.968 9.380,32.405 9.600 C 32.842 9.820,33.558 10.180,33.995 10.400 C 34.432 10.620,35.141 10.800,35.571 10.800 C 36.001 10.800,36.464 10.980,36.600 11.200 C 36.736 11.420,37.199 11.600,37.629 11.600 C 38.059 11.600,38.723 11.776,39.105 11.991 C 39.487 12.206,41.240 12.849,43.000 13.421 C 51.018 16.025,52.200 17.582,52.200 25.543 L 52.200 30.885 50.815 32.043 C 49.439 33.193,47.483 33.581,47.000 32.800 C 46.864 32.580,46.324 32.400,45.800 32.400 C 45.276 32.400,44.758 32.256,44.649 32.079 C 44.540 31.903,43.528 31.507,42.400 31.200 C 41.272 30.893,40.260 30.497,40.151 30.321 C 40.042 30.144,39.524 30.000,39.000 30.000 C 38.476 30.000,37.958 29.856,37.849 29.679 C 37.740 29.503,36.728 29.107,35.600 28.800 C 34.472 28.493,33.460 28.097,33.351 27.921 C 33.242 27.744,32.724 27.600,32.200 27.600 C 31.676 27.600,31.136 27.420,31.000 27.200 C 30.864 26.980,30.313 26.800,29.776 26.800 C 29.239 26.800,28.800 26.620,28.800 26.400 C 28.800 26.180,28.361 26.000,27.824 26.000 C 27.287 26.000,26.736 25.820,26.600 25.600 C 26.464 25.380,25.924 25.200,25.400 25.200 C 24.876 25.200,24.336 25.020,24.200 24.800 C 24.064 24.580,23.601 24.400,23.171 24.400 C 22.741 24.400,21.987 24.192,21.495 23.938 C 19.616 22.966,19.193 22.800,18.600 22.800 C 18.264 22.800,17.677 22.626,17.295 22.412 C 16.913 22.199,13.540 21.005,9.800 19.760 C 5.426 18.303,2.465 17.079,1.500 16.329 L -0.000 15.162 0.000 25.400 L 0.000 35.638 1.500 34.469 C 4.932 31.795,16.322 28.754,20.000 29.529 C 21.604 29.868,32.557 33.505,34.600 34.377 C 35.040 34.565,36.030 34.936,36.800 35.200 C 39.358 36.078,40.000 36.517,40.000 37.388 C 40.000 38.489,39.272 39.200,38.144 39.200 C 37.651 39.200,37.158 39.344,37.049 39.521 C 36.940 39.697,35.928 40.093,34.800 40.400 C 33.672 40.707,32.660 41.103,32.551 41.279 C 32.442 41.456,31.924 41.600,31.400 41.600 C 30.876 41.600,30.336 41.780,30.200 42.000 C 30.064 42.220,29.524 42.400,29.000 42.400 C 28.476 42.400,27.936 42.580,27.800 42.800 C 27.664 43.020,27.201 43.200,26.771 43.200 C 26.341 43.200,25.632 43.380,25.195 43.600 C 24.758 43.820,24.042 44.180,23.605 44.400 C 23.168 44.620,22.459 44.800,22.029 44.800 C 21.599 44.800,21.136 44.980,21.000 45.200 C 20.864 45.420,20.324 45.600,19.800 45.600 C 19.276 45.600,18.736 45.780,18.600 46.000 C 18.464 46.220,18.001 46.400,17.571 46.400 C 17.141 46.400,16.477 46.574,16.095 46.786 C 15.713 46.999,12.649 48.094,9.287 49.222 L 3.174 51.271 1.587 50.486 L 0.000 49.700 0.000 224.850 L 0.000 400.000 200.000 400.000 L 400.000 400.000 400.000 200.000 L 400.000 0.000 202.500 0.046 C 93.875 0.072,5.360 0.179,5.800 0.285 " stroke="none" fill="#fcfcfc" fill-rule="evenodd"></path><path id="path1" d="M2.400 0.660 C -0.070 1.922,-0.000 1.712,0.000 7.902 C 0.000 16.229,-1.025 15.302,13.800 20.381 C 17.100 21.511,20.160 22.596,20.600 22.792 C 21.040 22.987,22.570 23.528,24.000 23.993 C 25.430 24.457,26.913 25.009,27.295 25.219 C 27.677 25.429,28.341 25.600,28.771 25.600 C 29.201 25.600,29.642 25.744,29.751 25.921 C 29.860 26.097,30.872 26.493,32.000 26.800 C 33.128 27.107,34.140 27.503,34.249 27.679 C 34.358 27.856,34.799 28.000,35.229 28.000 C 35.659 28.000,36.323 28.171,36.705 28.381 C 37.087 28.591,38.570 29.143,40.000 29.607 C 41.430 30.072,42.960 30.612,43.400 30.806 C 50.020 33.732,51.605 32.727,51.591 25.611 C 51.577 18.199,50.543 16.794,43.200 14.211 C 40.890 13.399,37.560 12.225,35.800 11.603 C 34.040 10.981,31.430 10.084,30.000 9.610 C 28.570 9.136,27.040 8.591,26.600 8.400 C 26.160 8.209,24.630 7.672,23.200 7.207 C 21.770 6.743,20.287 6.191,19.905 5.981 C 19.523 5.771,18.936 5.600,18.600 5.600 C 18.264 5.600,17.677 5.424,17.295 5.209 C 16.913 4.994,15.250 4.375,13.600 3.833 C 9.143 2.370,4.680 0.798,4.000 0.453 C 3.670 0.286,2.950 0.379,2.400 0.660 M9.200 31.964 C 1.874 34.551,1.810 34.582,0.847 35.934 C -0.245 37.468,-0.453 48.004,0.588 49.045 C 2.014 50.471,3.324 50.504,7.050 49.207 C 9.002 48.527,13.030 47.165,16.000 46.179 C 18.970 45.193,21.713 44.210,22.095 43.993 C 22.477 43.777,23.064 43.600,23.400 43.600 C 23.736 43.600,24.323 43.423,24.705 43.208 C 25.087 42.992,27.290 42.193,29.600 41.433 C 34.830 39.712,39.226 38.107,39.522 37.811 C 40.043 37.290,37.445 36.047,32.400 34.401 C 31.850 34.222,28.813 33.158,25.651 32.038 C 18.033 29.337,16.654 29.331,9.200 31.964 " stroke="none" fill="#fc3636" fill-rule="evenodd"></path><path id="path2" d="M51.753 25.800 C 51.753 28.440,51.818 29.468,51.897 28.084 C 51.975 26.701,51.974 24.541,51.895 23.284 C 51.816 22.028,51.752 23.160,51.753 25.800 " stroke="none" fill="#fcb6b6" fill-rule="evenodd"></path><path id="path3" d="M1.400 0.654 C 0.623 1.265,0.629 1.275,1.600 0.996 C 2.821 0.647,3.603 -0.005,2.780 0.013 C 2.461 0.020,1.840 0.308,1.400 0.654 M10.400 2.800 C 10.730 3.013,11.270 3.188,11.600 3.188 C 12.133 3.188,12.133 3.145,11.600 2.800 C 11.270 2.587,10.730 2.412,10.400 2.412 C 9.867 2.412,9.867 2.455,10.400 2.800 M26.627 8.329 C 27.148 8.769,32.438 10.495,32.642 10.291 C 32.734 10.200,31.862 9.810,30.704 9.425 C 27.176 8.252,26.237 8.000,26.627 8.329 M33.600 10.733 C 33.930 10.936,34.650 11.224,35.200 11.371 C 35.895 11.557,36.017 11.525,35.600 11.267 C 35.270 11.064,34.550 10.776,34.000 10.629 C 33.305 10.443,33.183 10.475,33.600 10.733 M36.433 11.746 C 36.845 12.107,42.554 13.979,42.724 13.809 C 42.829 13.704,42.664 13.538,42.357 13.438 C 42.051 13.339,40.708 12.885,39.373 12.429 C 37.099 11.652,36.047 11.408,36.433 11.746 M0.002 14.271 C -0.001 14.907,2.829 17.204,3.591 17.184 C 3.926 17.175,3.660 16.889,3.000 16.548 C 2.340 16.207,1.396 15.449,0.902 14.864 C 0.408 14.279,0.003 14.012,0.002 14.271 M48.750 16.673 C 49.493 17.258,50.434 18.471,50.841 19.368 C 51.249 20.266,51.586 20.763,51.591 20.474 C 51.612 19.253,48.779 15.594,47.822 15.604 C 47.590 15.607,48.008 16.088,48.750 16.673 M5.800 17.971 C 6.680 18.394,7.670 18.739,8.000 18.738 C 8.684 18.734,6.705 17.825,5.200 17.450 C 4.650 17.314,4.920 17.548,5.800 17.971 M13.677 20.611 C 13.899 20.832,17.793 22.258,19.754 22.835 C 22.130 23.535,20.287 22.635,17.105 21.541 C 13.642 20.351,13.334 20.268,13.677 20.611 M24.400 24.466 C 25.938 25.105,27.739 25.606,27.447 25.314 C 27.117 24.983,24.335 24.006,23.800 24.031 C 23.580 24.042,23.850 24.238,24.400 24.466 M28.600 26.000 C 29.701 26.473,30.092 26.473,29.800 26.000 C 29.664 25.780,29.158 25.613,28.676 25.628 C 27.831 25.655,27.829 25.669,28.600 26.000 M14.138 29.906 C 13.884 30.068,15.352 30.200,17.400 30.200 C 19.448 30.200,20.916 30.068,20.662 29.906 C 20.408 29.744,18.940 29.612,17.400 29.612 C 15.860 29.612,14.392 29.744,14.138 29.906 M6.800 32.400 C 6.267 32.745,6.267 32.788,6.800 32.788 C 7.130 32.788,7.670 32.613,8.000 32.400 C 8.533 32.055,8.533 32.012,8.000 32.012 C 7.670 32.012,7.130 32.187,6.800 32.400 M47.570 32.552 C 48.079 32.779,48.721 32.779,49.230 32.552 C 49.904 32.251,49.748 32.182,48.400 32.182 C 47.052 32.182,46.896 32.251,47.570 32.552 M31.200 34.000 C 31.530 34.213,32.070 34.388,32.400 34.388 C 32.933 34.388,32.933 34.345,32.400 34.000 C 32.070 33.787,31.530 33.612,31.200 33.612 C 30.667 33.612,30.667 33.655,31.200 34.000 M35.600 35.600 C 35.930 35.813,36.470 35.988,36.800 35.988 C 37.333 35.988,37.333 35.945,36.800 35.600 C 36.470 35.387,35.930 35.212,35.600 35.212 C 35.067 35.212,35.067 35.255,35.600 35.600 M38.200 38.399 C 37.760 38.588,36.541 39.052,35.491 39.429 C 34.441 39.807,33.647 40.180,33.727 40.260 C 33.889 40.422,39.176 38.557,39.515 38.218 C 39.831 37.902,39.128 37.999,38.200 38.399 M12.800 47.200 C 12.267 47.545,12.267 47.588,12.800 47.588 C 13.130 47.588,13.670 47.413,14.000 47.200 C 14.533 46.855,14.533 46.812,14.000 46.812 C 13.670 46.812,13.130 46.987,12.800 47.200 M10.400 48.000 C 9.867 48.345,9.867 48.388,10.400 48.388 C 10.730 48.388,11.270 48.213,11.600 48.000 C 12.133 47.655,12.133 47.612,11.600 47.612 C 11.270 47.612,10.730 47.787,10.400 48.000 M0.751 49.618 C 2.016 50.672,3.378 50.977,4.271 50.406 C 4.964 49.963,4.962 49.952,4.239 50.181 C 3.353 50.461,0.800 49.710,0.800 49.169 C 0.800 48.966,0.575 48.806,0.300 48.813 C 0.025 48.821,0.228 49.183,0.751 49.618 " stroke="none" fill="#fc9c9c" fill-rule="evenodd"></path><path id="path4" d="M49.949 17.000 C 50.165 17.440,50.634 18.160,50.993 18.600 L 51.644 19.400 51.251 18.600 C 51.035 18.160,50.566 17.440,50.207 17.000 L 49.556 16.200 49.949 17.000 M2.400 17.031 C 2.400 17.301,4.478 18.056,4.676 17.857 C 4.767 17.767,4.292 17.501,3.620 17.267 C 2.949 17.033,2.400 16.927,2.400 17.031 M52.150 25.800 C 52.151 28.220,52.216 29.158,52.296 27.885 C 52.376 26.612,52.375 24.632,52.294 23.485 C 52.214 22.338,52.149 23.380,52.150 25.800 M47.062 32.900 C 47.164 33.065,47.766 33.200,48.400 33.200 C 49.034 33.200,49.636 33.065,49.738 32.900 C 49.840 32.735,49.238 32.600,48.400 32.600 C 47.562 32.600,46.960 32.735,47.062 32.900 " stroke="none" fill="#fccece" fill-rule="evenodd"></path></g></svg>